<?xml version="1.0" encoding="utf-8"?><svg xmlns="http://www.w3.org/2000/svg" xmlns:xlink="http://www.w3.org/1999/xlink" width="1366" height="639" preserveAspectRatio="xMidYMid" viewBox="0 0 1366 639" style="z-index:1;margin-right:-2px;display:block;background-color:rgb(241, 242, 243);animation-play-state:paused" ><g transform="translate(683,319.5) scale(1,1) translate(-683,-319.5)" style="transform:matrix(1, 0, 0, 1, 0, 0);animation-play-state:paused" ><g id="bk-0.34584442825780903" style="animation-play-state:paused" ><path d="M 721 350 L 626 262 L 605 357 Z" stroke="#76b9ba" fill="#76b9ba" style="animation-play-state:paused" ></path>
<path d="M 721 350 L 716 242 L 626 262 Z" stroke="#70b4b2" fill="#70b4b2" style="animation-play-state:paused" ></path>
<path d="M 522 168 L 519 273 L 626 262 Z" stroke="#48958c" fill="#48958c" style="animation-play-state:paused" ></path>
<path d="M 626 262 L 519 273 L 605 357 Z" stroke="#66aca4" fill="#66aca4" style="animation-play-state:paused" ></path>
<path d="M 716 242 L 622 165 L 626 262 Z" stroke="#5ca292" fill="#5ca292" style="animation-play-state:paused" ></path>
<path d="M 519 273 L 509 346 L 605 357 Z" stroke="#67aea6" fill="#67aea6" style="animation-play-state:paused" ></path>
<path d="M 630 476 L 720 454 L 721 350 Z" stroke="#97cedc" fill="#97cedc" style="animation-play-state:paused" ></path>
<path d="M 630 476 L 721 350 L 605 357 Z" stroke="#8ec7d2" fill="#8ec7d2" style="animation-play-state:paused" ></path>
<path d="M 835 268 L 731 164 L 716 242 Z" stroke="#67ada5" fill="#67ada5" style="animation-play-state:paused" ></path>
<path d="M 835 268 L 716 242 L 721 350 Z" stroke="#7abcbf" fill="#7abcbf" style="animation-play-state:paused" ></path>
<path d="M 716 242 L 731 164 L 622 165 Z" stroke="#549c8c" fill="#549c8c" style="animation-play-state:paused" ></path>
<path d="M 523 482 L 630 476 L 605 357 Z" stroke="#8ec8d3" fill="#8ec8d3" style="animation-play-state:paused" ></path>
<path d="M 834 357 L 835 268 L 721 350 Z" stroke="#8fc8d3" fill="#8fc8d3" style="animation-play-state:paused" ></path>
<path d="M 805 453 L 834 357 L 721 350 Z" stroke="#94ced9" fill="#94ced9" style="animation-play-state:paused" ></path>
<path d="M 622 165 L 522 168 L 626 262 Z" stroke="#36888b" fill="#36888b" style="animation-play-state:paused" ></path>
<path d="M 519 273 L 413 262 L 509 346 Z" stroke="#5aa08d" fill="#5aa08d" style="animation-play-state:paused" ></path>
<path d="M 720 454 L 805 453 L 721 350 Z" stroke="#90cdd7" fill="#90cdd7" style="animation-play-state:paused" ></path>
<path d="M 509 346 L 523 482 L 605 357 Z" stroke="#7abbbe" fill="#7abbbe" style="animation-play-state:paused" ></path>
<path d="M 835 268 L 821 160 L 731 164 Z" stroke="#63a99f" fill="#63a99f" style="animation-play-state:paused" ></path>
<path d="M 523 482 L 608 554 L 630 476 Z" stroke="#96cedb" fill="#96cedb" style="animation-play-state:paused" ></path>
<path d="M 630 476 L 723 560 L 720 454 Z" stroke="#88cbcf" fill="#88cbcf" style="animation-play-state:paused" ></path>
<path d="M 720 454 L 723 560 L 805 453 Z" stroke="#82c9c7" fill="#82c9c7" style="animation-play-state:paused" ></path>
<path d="M 522 168 L 413 262 L 519 273 Z" stroke="#2e818b" fill="#2e818b" style="animation-play-state:paused" ></path>
<path d="M 509 346 L 426 479 L 523 482 Z" stroke="#7abbbe" fill="#7abbbe" style="animation-play-state:paused" ></path>
<path d="M 608 554 L 723 560 L 630 476 Z" stroke="#87cbce" fill="#87cbce" style="animation-play-state:paused" ></path>
<path d="M 413 262 L 400 357 L 509 346 Z" stroke="#5aa18f" fill="#5aa18f" style="animation-play-state:paused" ></path>
<path d="M 523 482 L 532 573 L 608 554 Z" stroke="#96cedb" fill="#96cedb" style="animation-play-state:paused" ></path>
<path d="M 703 66 L 619 58 L 622 165 Z" stroke="#2a5177" fill="#2a5177" style="animation-play-state:paused" ></path>
<path d="M 622 165 L 619 58 L 522 168 Z" stroke="#265a7d" fill="#265a7d" style="animation-play-state:paused" ></path>
<path d="M 522 168 L 418 172 L 413 262 Z" stroke="#246282" fill="#246282" style="animation-play-state:paused" ></path>
<path d="M 703 66 L 622 165 L 731 164 Z" stroke="#257488" fill="#257488" style="animation-play-state:paused" ></path>
<path d="M 797 40 L 703 66 L 731 164 Z" stroke="#236482" fill="#236482" style="animation-play-state:paused" ></path>
<path d="M 805 453 L 914 364 L 834 357 Z" stroke="#8acbd1" fill="#8acbd1" style="animation-play-state:paused" ></path>
<path d="M 834 357 L 914 364 L 835 268 Z" stroke="#9bcfde" fill="#9bcfde" style="animation-play-state:paused" ></path>
<path d="M 835 268 L 928 272 L 821 160 Z" stroke="#75b8b9" fill="#75b8b9" style="animation-play-state:paused" ></path>
<path d="M 939 470 L 914 364 L 805 453 Z" stroke="#7ec7c2" fill="#7ec7c2" style="animation-play-state:paused" ></path>
<path d="M 914 364 L 928 272 L 835 268 Z" stroke="#95ccd9" fill="#95ccd9" style="animation-play-state:paused" ></path>
<path d="M 821 160 L 797 40 L 731 164 Z" stroke="#30838b" fill="#30838b" style="animation-play-state:paused" ></path>
<path d="M 513 58 L 418 172 L 522 168 Z" stroke="#323f68" fill="#323f68" style="animation-play-state:paused" ></path>
<path d="M 313 259 L 338 361 L 400 357 Z" stroke="#388a8c" fill="#388a8c" style="animation-play-state:paused" ></path>
<path d="M 400 357 L 426 479 L 509 346 Z" stroke="#69afa9" fill="#69afa9" style="animation-play-state:paused" ></path>
<path d="M 426 479 L 532 573 L 523 482 Z" stroke="#8ec8d2" fill="#8ec8d2" style="animation-play-state:paused" ></path>
<path d="M 608 554 L 719 659 L 723 560 Z" stroke="#7cc6be" fill="#7cc6be" style="animation-play-state:paused" ></path>
<path d="M 928 272 L 907 151 L 821 160 Z" stroke="#6ab0ab" fill="#6ab0ab" style="animation-play-state:paused" ></path>
<path d="M 522 -21 L 513 58 L 619 58 Z" stroke="#391b3e" fill="#391b3e" style="animation-play-state:paused" ></path>
<path d="M 619 58 L 513 58 L 522 168 Z" stroke="#343760" fill="#343760" style="animation-play-state:paused" ></path>
<path d="M 907 151 L 797 40 L 821 160 Z" stroke="#3c8d8c" fill="#3c8d8c" style="animation-play-state:paused" ></path>
<path d="M 703 66 L 616 -48 L 619 58 Z" stroke="#371b41" fill="#371b41" style="animation-play-state:paused" ></path>
<path d="M 825 640 L 829 583 L 723 560 Z" stroke="#76c0a7" fill="#76c0a7" style="animation-play-state:paused" ></path>
<path d="M 723 560 L 829 583 L 805 453 Z" stroke="#79c4b7" fill="#79c4b7" style="animation-play-state:paused" ></path>
<path d="M 829 583 L 939 470 L 805 453 Z" stroke="#78c3b1" fill="#78c3b1" style="animation-play-state:paused" ></path>
<path d="M 914 364 L 1002 241 L 928 272 Z" stroke="#99cedd" fill="#99cedd" style="animation-play-state:paused" ></path>
<path d="M 618 649 L 719 659 L 608 554 Z" stroke="#7dc7c0" fill="#7dc7c0" style="animation-play-state:paused" ></path>
<path d="M 313 259 L 400 357 L 413 262 Z" stroke="#2e818b" fill="#2e818b" style="animation-play-state:paused" ></path>
<path d="M 400 357 L 338 361 L 426 479 Z" stroke="#62a99d" fill="#62a99d" style="animation-play-state:paused" ></path>
<path d="M 426 479 L 410 563 L 532 573 Z" stroke="#8bc6d0" fill="#8bc6d0" style="animation-play-state:paused" ></path>
<path d="M 326 562 L 410 563 L 426 479 Z" stroke="#7cbdc0" fill="#7cbdc0" style="animation-play-state:paused" ></path>
<path d="M 532 573 L 618 649 L 608 554 Z" stroke="#88cbcf" fill="#88cbcf" style="animation-play-state:paused" ></path>
<path d="M 517 661 L 618 649 L 532 573 Z" stroke="#89cbd0" fill="#89cbd0" style="animation-play-state:paused" ></path>
<path d="M 346 181 L 413 262 L 418 172 Z" stroke="#295379" fill="#295379" style="animation-play-state:paused" ></path>
<path d="M 346 181 L 313 259 L 413 262 Z" stroke="#275a7d" fill="#275a7d" style="animation-play-state:paused" ></path>
<path d="M 928 272 L 1002 241 L 907 151 Z" stroke="#7bbcbf" fill="#7bbcbf" style="animation-play-state:paused" ></path>
<path d="M 1015 356 L 1002 241 L 914 364 Z" stroke="#90cdd6" fill="#90cdd6" style="animation-play-state:paused" ></path>
<path d="M 723 -36 L 616 -48 L 703 66 Z" stroke="#391a3d" fill="#391a3d" style="animation-play-state:paused" ></path>
<path d="M 819 -45 L 723 -36 L 797 40 Z" stroke="#371b3f" fill="#371b3f" style="animation-play-state:paused" ></path>
<path d="M 797 40 L 723 -36 L 703 66 Z" stroke="#363059" fill="#363059" style="animation-play-state:paused" ></path>
<path d="M 422 52 L 418 172 L 513 58 Z" stroke="#371b40" fill="#371b40" style="animation-play-state:paused" ></path>
<path d="M 422 52 L 346 181 L 418 172 Z" stroke="#37274e" fill="#37274e" style="animation-play-state:paused" ></path>
<path d="M 417 -37 L 422 52 L 513 58 Z" stroke="#402344" fill="#402344" style="animation-play-state:paused" ></path>
<path d="M 933 678 L 923 548 L 829 583 Z" stroke="#6fb789" fill="#6fb789" style="animation-play-state:paused" ></path>
<path d="M 829 583 L 923 548 L 939 470 Z" stroke="#76bea0" fill="#76bea0" style="animation-play-state:paused" ></path>
<path d="M 939 470 L 1015 356 L 914 364 Z" stroke="#7ec7c2" fill="#7ec7c2" style="animation-play-state:paused" ></path>
<path d="M 1031 57 L 906 69 L 907 151 Z" stroke="#3f8f8c" fill="#3f8f8c" style="animation-play-state:paused" ></path>
<path d="M 907 151 L 906 69 L 797 40 Z" stroke="#2a7c8a" fill="#2a7c8a" style="animation-play-state:paused" ></path>
<path d="M 616 -48 L 522 -21 L 619 58 Z" stroke="#3d2041" fill="#3d2041" style="animation-play-state:paused" ></path>
<path d="M 1035 482 L 1015 356 L 939 470 Z" stroke="#77c2af" fill="#77c2af" style="animation-play-state:paused" ></path>
<path d="M 721 765 L 825 640 L 719 659 Z" stroke="#76be9e" fill="#76be9e" style="animation-play-state:paused" ></path>
<path d="M 719 659 L 825 640 L 723 560 Z" stroke="#76c1a9" fill="#76c1a9" style="animation-play-state:paused" ></path>
<path d="M 410 563 L 517 661 L 532 573 Z" stroke="#98cedc" fill="#98cedc" style="animation-play-state:paused" ></path>
<path d="M 338 361 L 293 461 L 426 479 Z" stroke="#63aa9f" fill="#63aa9f" style="animation-play-state:paused" ></path>
<path d="M 410 563 L 419 664 L 517 661 Z" stroke="#9acfdd" fill="#9acfdd" style="animation-play-state:paused" ></path>
<path d="M 208 358 L 293 461 L 338 361 Z" stroke="#43928c" fill="#43928c" style="animation-play-state:paused" ></path>
<path d="M 906 69 L 819 -45 L 797 40 Z" stroke="#30436c" fill="#30436c" style="animation-play-state:paused" ></path>
<path d="M 723 -36 L 726 -154 L 616 -48 Z" stroke="#452a49" fill="#452a49" style="animation-play-state:paused" ></path>
<path d="M 1133 270 L 1043 157 L 1002 241 Z" stroke="#88c5ce" fill="#88c5ce" style="animation-play-state:paused" ></path>
<path d="M 1002 241 L 1043 157 L 907 151 Z" stroke="#70b5b3" fill="#70b5b3" style="animation-play-state:paused" ></path>
<path d="M 906 69 L 925 -53 L 819 -45 Z" stroke="#35325b" fill="#35325b" style="animation-play-state:paused" ></path>
<path d="M 998 541 L 939 470 L 923 548 Z" stroke="#73bc98" fill="#73bc98" style="animation-play-state:paused" ></path>
<path d="M 998 541 L 1035 482 L 939 470 Z" stroke="#73bc98" fill="#73bc98" style="animation-play-state:paused" ></path>
<path d="M 1015 356 L 1109 359 L 1002 241 Z" stroke="#8acbd1" fill="#8acbd1" style="animation-play-state:paused" ></path>
<path d="M 1013 659 L 998 541 L 923 548 Z" stroke="#6db277" fill="#6db277" style="animation-play-state:paused" ></path>
<path d="M 338 -29 L 336 54 L 422 52 Z" stroke="#452a49" fill="#452a49" style="animation-play-state:paused" ></path>
<path d="M 422 52 L 336 54 L 346 181 Z" stroke="#3a1c3f" fill="#3a1c3f" style="animation-play-state:paused" ></path>
<path d="M 218 249 L 208 358 L 313 259 Z" stroke="#295379" fill="#295379" style="animation-play-state:paused" ></path>
<path d="M 326 562 L 419 664 L 410 563 Z" stroke="#86c3cb" fill="#86c3cb" style="animation-play-state:paused" ></path>
<path d="M 639 778 L 721 765 L 618 649 Z" stroke="#77c3b1" fill="#77c3b1" style="animation-play-state:paused" ></path>
<path d="M 293 461 L 326 562 L 426 479 Z" stroke="#6eb3b0" fill="#6eb3b0" style="animation-play-state:paused" ></path>
<path d="M 535 -118 L 417 -37 L 522 -21 Z" stroke="#4c314f" fill="#4c314f" style="animation-play-state:paused" ></path>
<path d="M 522 -21 L 417 -37 L 513 58 Z" stroke="#422646" fill="#422646" style="animation-play-state:paused" ></path>
<path d="M 1043 157 L 1031 57 L 907 151 Z" stroke="#5da495" fill="#5da495" style="animation-play-state:paused" ></path>
<path d="M 825 640 L 933 678 L 829 583 Z" stroke="#6fb889" fill="#6fb889" style="animation-play-state:paused" ></path>
<path d="M 846 758 L 933 678 L 825 640 Z" stroke="#6db379" fill="#6db379" style="animation-play-state:paused" ></path>
<path d="M 1007 -39 L 925 -53 L 906 69 Z" stroke="#323f69" fill="#323f69" style="animation-play-state:paused" ></path>
<path d="M 819 -45 L 726 -154 L 723 -36 Z" stroke="#422646" fill="#422646" style="animation-play-state:paused" ></path>
<path d="M 616 -48 L 535 -118 L 522 -21 Z" stroke="#492e4c" fill="#492e4c" style="animation-play-state:paused" ></path>
<path d="M 218 249 L 313 259 L 230 164 Z" stroke="#36325b" fill="#36325b" style="animation-play-state:paused" ></path>
<path d="M 313 259 L 208 358 L 338 361 Z" stroke="#257588" fill="#257588" style="animation-play-state:paused" ></path>
<path d="M 293 461 L 222 578 L 326 562 Z" stroke="#67aea6" fill="#67aea6" style="animation-play-state:paused" ></path>
<path d="M 639 778 L 618 649 L 511 743 Z" stroke="#7dc7c1" fill="#7dc7c1" style="animation-play-state:paused" ></path>
<path d="M 618 649 L 721 765 L 719 659 Z" stroke="#77c2af" fill="#77c2af" style="animation-play-state:paused" ></path>
<path d="M 1134 462 L 1015 356 L 1035 482 Z" stroke="#76c0a6" fill="#76c0a6" style="animation-play-state:paused" ></path>
<path d="M 1134 462 L 1109 359 L 1015 356 Z" stroke="#78c3b2" fill="#78c3b2" style="animation-play-state:paused" ></path>
<path d="M 1043 157 L 1126 83 L 1031 57 Z" stroke="#5ca292" fill="#5ca292" style="animation-play-state:paused" ></path>
<path d="M 809 -153 L 726 -154 L 819 -45 Z" stroke="#482d4b" fill="#482d4b" style="animation-play-state:paused" ></path>
<path d="M 511 743 L 618 649 L 517 661 Z" stroke="#85cacb" fill="#85cacb" style="animation-play-state:paused" ></path>
<path d="M 726 -154 L 627 -150 L 616 -48 Z" stroke="#4e3450" fill="#4e3450" style="animation-play-state:paused" ></path>
<path d="M 230 164 L 313 259 L 346 181 Z" stroke="#35325b" fill="#35325b" style="animation-play-state:paused" ></path>
<path d="M 419 664 L 511 743 L 517 661 Z" stroke="#8fcdd6" fill="#8fcdd6" style="animation-play-state:paused" ></path>
<path d="M 1109 359 L 1133 270 L 1002 241 Z" stroke="#8fcdd6" fill="#8fcdd6" style="animation-play-state:paused" ></path>
<path d="M 627 -150 L 535 -118 L 616 -48 Z" stroke="#4f3551" fill="#4f3551" style="animation-play-state:paused" ></path>
<path d="M 336 54 L 230 164 L 346 181 Z" stroke="#391b3e" fill="#391b3e" style="animation-play-state:paused" ></path>
<path d="M 223 58 L 230 164 L 336 54 Z" stroke="#422546" fill="#422546" style="animation-play-state:paused" ></path>
<path d="M 118 456 L 206 451 L 208 358 Z" stroke="#277989" fill="#277989" style="animation-play-state:paused" ></path>
<path d="M 208 358 L 206 451 L 293 461 Z" stroke="#3f8f8c" fill="#3f8f8c" style="animation-play-state:paused" ></path>
<path d="M 326 562 L 328 680 L 419 664 Z" stroke="#85c2ca" fill="#85c2ca" style="animation-play-state:paused" ></path>
<path d="M 925 -53 L 809 -153 L 819 -45 Z" stroke="#3f2243" fill="#3f2243" style="animation-play-state:paused" ></path>
<path d="M 726 -154 L 905 -150 L 627 -150 Z" stroke="#503652" fill="#503652" style="animation-play-state:paused" ></path>
<path d="M 404 -145 L 338 -29 L 417 -37 Z" stroke="#543b56" fill="#543b56" style="animation-play-state:paused" ></path>
<path d="M 417 -37 L 338 -29 L 422 52 Z" stroke="#492d4c" fill="#492d4c" style="animation-play-state:paused" ></path>
<path d="M 1118 566 L 1035 482 L 998 541 Z" stroke="#6db37a" fill="#6db37a" style="animation-play-state:paused" ></path>
<path d="M 1118 566 L 1134 462 L 1035 482 Z" stroke="#6db47c" fill="#6db47c" style="animation-play-state:paused" ></path>
<path d="M 1201 359 L 1203 233 L 1133 270 Z" stroke="#88cbcf" fill="#88cbcf" style="animation-play-state:paused" ></path>
<path d="M 1126 83 L 1126 157 L 1218 161 Z" stroke="#6cb2ad" fill="#6cb2ad" style="animation-play-state:paused" ></path>
<path d="M 1133 270 L 1126 157 L 1043 157 Z" stroke="#80c0c5" fill="#80c0c5" style="animation-play-state:paused" ></path>
<path d="M 1031 57 L 1007 -39 L 906 69 Z" stroke="#236482" fill="#236482" style="animation-play-state:paused" ></path>
<path d="M 925 -53 L 905 -150 L 809 -153 Z" stroke="#442848" fill="#442848" style="animation-play-state:paused" ></path>
<path d="M 241 670 L 328 680 L 326 562 Z" stroke="#78babc" fill="#78babc" style="animation-play-state:paused" ></path>
<path d="M 419 664 L 411 740 L 511 743 Z" stroke="#94ceda" fill="#94ceda" style="animation-play-state:paused" ></path>
<path d="M 639 778 L 846 758 L 721 765 Z" stroke="#75bd9c" fill="#75bd9c" style="animation-play-state:paused" ></path>
<path d="M 721 765 L 846 758 L 825 640 Z" stroke="#6fb88c" fill="#6fb88c" style="animation-play-state:paused" ></path>
<path d="M 933 678 L 1013 659 L 923 548 Z" stroke="#6daf6d" fill="#6daf6d" style="animation-play-state:paused" ></path>
<path d="M 1020 761 L 1013 659 L 933 678 Z" stroke="#73a44c" fill="#73a44c" style="animation-play-state:paused" ></path>
<path d="M 1126 -35 L 1007 -39 L 1031 57 Z" stroke="#295379" fill="#295379" style="animation-play-state:paused" ></path>
<path d="M 328 680 L 411 740 L 419 664 Z" stroke="#92cad7" fill="#92cad7" style="animation-play-state:paused" ></path>
<path d="M 511 743 L 305 745 L 639 778 Z" stroke="#8bccd2" fill="#8bccd2" style="animation-play-state:paused" ></path>
<path d="M 206 451 L 222 578 L 293 461 Z" stroke="#5da494" fill="#5da494" style="animation-play-state:paused" ></path>
<path d="M 328 680 L 305 745 L 411 740 Z" stroke="#8bc6d0" fill="#8bc6d0" style="animation-play-state:paused" ></path>
<path d="M 238 -33 L 223 58 L 336 54 Z" stroke="#4c314e" fill="#4c314e" style="animation-play-state:paused" ></path>
<path d="M 104 171 L 144 261 L 218 249 Z" stroke="#37183c" fill="#37183c" style="animation-play-state:paused" ></path>
<path d="M 627 -150 L 404 -145 L 535 -118 Z" stroke="#504465" fill="#504465" style="animation-play-state:paused" ></path>
<path d="M 535 -118 L 404 -145 L 417 -37 Z" stroke="#553d57" fill="#553d57" style="animation-play-state:paused" ></path>
<path d="M 338 -29 L 238 -33 L 336 54 Z" stroke="#4e3450" fill="#4e3450" style="animation-play-state:paused" ></path>
<path d="M 1019 -141 L 905 -150 L 925 -53 Z" stroke="#412445" fill="#412445" style="animation-play-state:paused" ></path>
<path d="M 809 -153 L 905 -150 L 726 -154 Z" stroke="#4d3350" fill="#4d3350" style="animation-play-state:paused" ></path>
<path d="M 627 -150 L 905 -150 L 404 -145 Z" stroke="#543b56" fill="#543b56" style="animation-play-state:paused" ></path>
<path d="M 1203 233 L 1126 157 L 1133 270 Z" stroke="#92cad6" fill="#92cad6" style="animation-play-state:paused" ></path>
<path d="M 1126 157 L 1126 83 L 1043 157 Z" stroke="#68aea7" fill="#68aea7" style="animation-play-state:paused" ></path>
<path d="M 846 758 L 922 772 L 933 678 Z" stroke="#6eac66" fill="#6eac66" style="animation-play-state:paused" ></path>
<path d="M 1013 659 L 1118 566 L 998 541 Z" stroke="#6fab60" fill="#6fab60" style="animation-play-state:paused" ></path>
<path d="M 1201 359 L 1133 270 L 1109 359 Z" stroke="#7fc8c3" fill="#7fc8c3" style="animation-play-state:paused" ></path>
<path d="M 1138 679 L 1118 566 L 1013 659 Z" stroke="#789e3d" fill="#789e3d" style="animation-play-state:paused" ></path>
<path d="M 104 171 L 218 249 L 230 164 Z" stroke="#391b3e" fill="#391b3e" style="animation-play-state:paused" ></path>
<path d="M 218 249 L 144 261 L 208 358 Z" stroke="#314069" fill="#314069" style="animation-play-state:paused" ></path>
<path d="M 206 451 L 123 548 L 222 578 Z" stroke="#599f8c" fill="#599f8c" style="animation-play-state:paused" ></path>
<path d="M 294 -147 L 238 -33 L 338 -29 Z" stroke="#48486d" fill="#48486d" style="animation-play-state:paused" ></path>
<path d="M 223 58 L 104 171 L 230 164 Z" stroke="#422545" fill="#422545" style="animation-play-state:paused" ></path>
<path d="M 1201 359 L 1109 359 L 1134 462 Z" stroke="#76c1aa" fill="#76c1aa" style="animation-play-state:paused" ></path>
<path d="M 1208 449 L 1201 359 L 1134 462 Z" stroke="#72bc97" fill="#72bc97" style="animation-play-state:paused" ></path>
<path d="M 144 261 L 118 352 L 208 358 Z" stroke="#2f456e" fill="#2f456e" style="animation-play-state:paused" ></path>
<path d="M 113 657 L 241 670 L 222 578 Z" stroke="#64aba1" fill="#64aba1" style="animation-play-state:paused" ></path>
<path d="M 222 578 L 241 670 L 326 562 Z" stroke="#6db2af" fill="#6db2af" style="animation-play-state:paused" ></path>
<path d="M 118 352 L 118 456 L 208 358 Z" stroke="#246181" fill="#246181" style="animation-play-state:paused" ></path>
<path d="M 241 670 L 305 745 L 328 680 Z" stroke="#7cbdc1" fill="#7cbdc1" style="animation-play-state:paused" ></path>
<path d="M 411 740 L 305 745 L 511 743 Z" stroke="#9acfde" fill="#9acfde" style="animation-play-state:paused" ></path>
<path d="M 1118 566 L 1208 449 L 1134 462 Z" stroke="#6db175" fill="#6db175" style="animation-play-state:paused" ></path>
<path d="M 106 73 L 104 171 L 223 58 Z" stroke="#492e4c" fill="#492e4c" style="animation-play-state:paused" ></path>
<path d="M 24 260 L 26 361 L 118 352 Z" stroke="#372147" fill="#372147" style="animation-play-state:paused" ></path>
<path d="M 1126 -35 L 1019 -141 L 1007 -39 Z" stroke="#361a3f" fill="#361a3f" style="animation-play-state:paused" ></path>
<path d="M 1007 -39 L 1019 -141 L 925 -53 Z" stroke="#391a3d" fill="#391a3d" style="animation-play-state:paused" ></path>
<path d="M 1126 83 L 1126 -35 L 1031 57 Z" stroke="#287b8a" fill="#287b8a" style="animation-play-state:paused" ></path>
<path d="M 1208 61 L 1126 -35 L 1126 83 Z" stroke="#31848b" fill="#31848b" style="animation-play-state:paused" ></path>
<path d="M 1317 242 L 1218 161 L 1203 233 Z" stroke="#96ccda" fill="#96ccda" style="animation-play-state:paused" ></path>
<path d="M 1203 233 L 1218 161 L 1126 157 Z" stroke="#83c1c8" fill="#83c1c8" style="animation-play-state:paused" ></path>
<path d="M 1302 358 L 1203 233 L 1201 359 Z" stroke="#7dc7c0" fill="#7dc7c0" style="animation-play-state:paused" ></path>
<path d="M 922 772 L 1020 761 L 933 678 Z" stroke="#72a550" fill="#72a550" style="animation-play-state:paused" ></path>
<path d="M 1118 566 L 1241 576 L 1208 449 Z" stroke="#71a755" fill="#71a755" style="animation-play-state:paused" ></path>
<path d="M 905 -150 L 294 -147 L 404 -145 Z" stroke="#4a476b" fill="#4a476b" style="animation-play-state:paused" ></path>
<path d="M 404 -145 L 294 -147 L 338 -29 Z" stroke="#2d5378" fill="#2d5378" style="animation-play-state:paused" ></path>
<path d="M 238 -33 L 106 73 L 223 58 Z" stroke="#503652" fill="#503652" style="animation-play-state:paused" ></path>
<path d="M 1020 761 L 1138 679 L 1013 659 Z" stroke="#7b9a31" fill="#7b9a31" style="animation-play-state:paused" ></path>
<path d="M 118 456 L 123 548 L 206 451 Z" stroke="#33868b" fill="#33868b" style="animation-play-state:paused" ></path>
<path d="M 10 444 L 123 548 L 118 456 Z" stroke="#236c86" fill="#236c86" style="animation-play-state:paused" ></path>
<path d="M 107 -40 L 106 73 L 238 -33 Z" stroke="#534261" fill="#534261" style="animation-play-state:paused" ></path>
<path d="M 24 260 L 118 352 L 144 261 Z" stroke="#371f45" fill="#371f45" style="animation-play-state:paused" ></path>
<path d="M 1218 161 L 1208 61 L 1126 83 Z" stroke="#63aa9f" fill="#63aa9f" style="animation-play-state:paused" ></path>
<path d="M 1225 668 L 1241 576 L 1118 566 Z" stroke="#7e9728" fill="#7e9728" style="animation-play-state:paused" ></path>
<path d="M 1208 449 L 1302 358 L 1201 359 Z" stroke="#76bfa1" fill="#76bfa1" style="animation-play-state:paused" ></path>
<path d="M 117 772 L 231 770 L 241 670 Z" stroke="#6bb0ab" fill="#6bb0ab" style="animation-play-state:paused" ></path>
<path d="M 241 670 L 231 770 L 305 745 Z" stroke="#77b9bb" fill="#77b9bb" style="animation-play-state:paused" ></path>
<path d="M 305 745 L 231 770 L 639 778 Z" stroke="#98cedc" fill="#98cedc" style="animation-play-state:paused" ></path>
<path d="M 639 778 L 231 770 L 846 758 Z" stroke="#7ec7c2" fill="#7ec7c2" style="animation-play-state:paused" ></path>
<path d="M 294 -147 L 217 -151 L 238 -33 Z" stroke="#006769" fill="#006769" style="animation-play-state:paused" ></path>
<path d="M 24 260 L 144 261 L 104 171 Z" stroke="#3c1e40" fill="#3c1e40" style="animation-play-state:paused" ></path>
<path d="M 118 352 L 26 361 L 118 456 Z" stroke="#2d4a72" fill="#2d4a72" style="animation-play-state:paused" ></path>
<path d="M 23 169 L 24 260 L 104 171 Z" stroke="#432646" fill="#432646" style="animation-play-state:paused" ></path>
<path d="M 1330 458 L 1302 358 L 1208 449 Z" stroke="#6eb787" fill="#6eb787" style="animation-play-state:paused" ></path>
<path d="M 1218 161 L 1318 149 L 1208 61 Z" stroke="#6eb3b0" fill="#6eb3b0" style="animation-play-state:paused" ></path>
<path d="M 1019 -141 L 1119 -139 L 905 -150 Z" stroke="#442848" fill="#442848" style="animation-play-state:paused" ></path>
<path d="M 905 -150 L 1195 -146 L 294 -147 Z" stroke="#4d3350" fill="#4d3350" style="animation-play-state:paused" ></path>
<path d="M 1126 -35 L 1119 -139 L 1019 -141 Z" stroke="#3b1d3f" fill="#3b1d3f" style="animation-play-state:paused" ></path>
<path d="M 1195 -146 L 1119 -139 L 1126 -35 Z" stroke="#391b3e" fill="#391b3e" style="animation-play-state:paused" ></path>
<path d="M 48 562 L 113 657 L 123 548 Z" stroke="#3e8e8c" fill="#3e8e8c" style="animation-play-state:paused" ></path>
<path d="M 123 548 L 113 657 L 222 578 Z" stroke="#5ba190" fill="#5ba190" style="animation-play-state:paused" ></path>
<path d="M 1020 761 L 1128 765 L 1138 679 Z" stroke="#889a27" fill="#889a27" style="animation-play-state:paused" ></path>
<path d="M 1138 679 L 1225 668 L 1118 566 Z" stroke="#829726" fill="#829726" style="animation-play-state:paused" ></path>
<path d="M 922 772 L 1128 765 L 1020 761 Z" stroke="#7b9a32" fill="#7b9a32" style="animation-play-state:paused" ></path>
<path d="M 1302 358 L 1317 242 L 1203 233 Z" stroke="#85cacc" fill="#85cacc" style="animation-play-state:paused" ></path>
<path d="M 1208 61 L 1226 -22 L 1126 -35 Z" stroke="#236b85" fill="#236b85" style="animation-play-state:paused" ></path>
<path d="M 30 76 L 23 169 L 104 171 Z" stroke="#4b304d" fill="#4b304d" style="animation-play-state:paused" ></path>
<path d="M -97 348 L 10 444 L 26 361 Z" stroke="#371e44" fill="#371e44" style="animation-play-state:paused" ></path>
<path d="M 30 76 L 104 171 L 106 73 Z" stroke="#4d3350" fill="#4d3350" style="animation-play-state:paused" ></path>
<path d="M 1217 761 L 1225 668 L 1138 679 Z" stroke="#9da22a" fill="#9da22a" style="animation-play-state:paused" ></path>
<path d="M 1241 576 L 1330 458 L 1208 449 Z" stroke="#70a95c" fill="#70a95c" style="animation-play-state:paused" ></path>
<path d="M 217 -151 L 107 -40 L 238 -33 Z" stroke="#006274" fill="#006274" style="animation-play-state:paused" ></path>
<path d="M 1331 60 L 1226 -22 L 1208 61 Z" stroke="#3c8d8c" fill="#3c8d8c" style="animation-play-state:paused" ></path>
<path d="M 1317 242 L 1318 149 L 1218 161 Z" stroke="#8bc6d0" fill="#8bc6d0" style="animation-play-state:paused" ></path>
<path d="M 1332 572 L 1330 458 L 1241 576 Z" stroke="#7a9c36" fill="#7a9c36" style="animation-play-state:paused" ></path>
<path d="M 1302 358 L 1421 345 L 1317 242 Z" stroke="#7ac5b8" fill="#7ac5b8" style="animation-play-state:paused" ></path>
<path d="M -97 348 L 26 361 L 24 260 Z" stroke="#3a1c3f" fill="#3a1c3f" style="animation-play-state:paused" ></path>
<path d="M 26 361 L 10 444 L 118 456 Z" stroke="#2e4971" fill="#2e4971" style="animation-play-state:paused" ></path>
<path d="M 25 -29 L 30 76 L 106 73 Z" stroke="#4f4465" fill="#4f4465" style="animation-play-state:paused" ></path>
<path d="M 10 444 L 48 562 L 123 548 Z" stroke="#236e86" fill="#236e86" style="animation-play-state:paused" ></path>
<path d="M 40 765 L 117 772 L 113 657 Z" stroke="#5aa08e" fill="#5aa08e" style="animation-play-state:paused" ></path>
<path d="M 113 657 L 117 772 L 241 670 Z" stroke="#62a99e" fill="#62a99e" style="animation-play-state:paused" ></path>
<path d="M 1432 171 L 1331 60 L 1318 149 Z" stroke="#76b8b9" fill="#76b8b9" style="animation-play-state:paused" ></path>
<path d="M 1318 149 L 1331 60 L 1208 61 Z" stroke="#64aba1" fill="#64aba1" style="animation-play-state:paused" ></path>
<path d="M 1432 171 L 1318 149 L 1317 242 Z" stroke="#92cad6" fill="#92cad6" style="animation-play-state:paused" ></path>
<path d="M 217 -151 L 120 -126 L 107 -40 Z" stroke="#2c6f39" fill="#2c6f39" style="animation-play-state:paused" ></path>
<path d="M 107 -40 L 25 -29 L 106 73 Z" stroke="#315277" fill="#315277" style="animation-play-state:paused" ></path>
<path d="M 294 -147 L 120 -126 L 217 -151 Z" stroke="#4a6f27" fill="#4a6f27" style="animation-play-state:paused" ></path>
<path d="M 1225 668 L 1332 572 L 1241 576 Z" stroke="#8e9c28" fill="#8e9c28" style="animation-play-state:paused" ></path>
<path d="M 1330 458 L 1421 345 L 1302 358 Z" stroke="#71bb94" fill="#71bb94" style="animation-play-state:paused" ></path>
<path d="M 1347 670 L 1332 572 L 1225 668 Z" stroke="#a2a42b" fill="#a2a42b" style="animation-play-state:paused" ></path>
<path d="M 1226 -22 L 1195 -146 L 1126 -35 Z" stroke="#362f58" fill="#362f58" style="animation-play-state:paused" ></path>
<path d="M 1119 -139 L 1195 -146 L 905 -150 Z" stroke="#432747" fill="#432747" style="animation-play-state:paused" ></path>
<path d="M 1306 -39 L 1195 -146 L 1226 -22 Z" stroke="#35345e" fill="#35345e" style="animation-play-state:paused" ></path>
<path d="M 1337 781 L 1217 761 L 1128 765 Z" stroke="#b2aa2f" fill="#b2aa2f" style="animation-play-state:paused" ></path>
<path d="M 1128 765 L 1217 761 L 1138 679 Z" stroke="#9ba12a" fill="#9ba12a" style="animation-play-state:paused" ></path>
<path d="M -80 572 L 22 662 L 48 562 Z" stroke="#236a85" fill="#236a85" style="animation-play-state:paused" ></path>
<path d="M 48 562 L 22 662 L 113 657 Z" stroke="#37898c" fill="#37898c" style="animation-play-state:paused" ></path>
<path d="M 38 -138 L 25 -29 L 107 -40 Z" stroke="#2e6f38" fill="#2e6f38" style="animation-play-state:paused" ></path>
<path d="M 30 76 L -78 180 L 23 169 Z" stroke="#4f3551" fill="#4f3551" style="animation-play-state:paused" ></path>
<path d="M 23 169 L -78 180 L 24 260 Z" stroke="#472c4a" fill="#472c4a" style="animation-play-state:paused" ></path>
<path d="M 1331 60 L 1306 -39 L 1226 -22 Z" stroke="#257588" fill="#257588" style="animation-play-state:paused" ></path>
<path d="M -88 56 L -78 180 L 30 76 Z" stroke="#553f5c" fill="#553f5c" style="animation-play-state:paused" ></path>
<path d="M 10 444 L -80 572 L 48 562 Z" stroke="#28557a" fill="#28557a" style="animation-play-state:paused" ></path>
<path d="M 1419 472 L 1421 345 L 1330 458 Z" stroke="#6db175" fill="#6db175" style="animation-play-state:paused" ></path>
<path d="M 1331 60 L 1412 38 L 1306 -39 Z" stroke="#398b8c" fill="#398b8c" style="animation-play-state:paused" ></path>
<path d="M -78 180 L -94 265 L 24 260 Z" stroke="#472b4a" fill="#472b4a" style="animation-play-state:paused" ></path>
<path d="M -94 265 L -97 348 L 24 260 Z" stroke="#412445" fill="#412445" style="animation-play-state:paused" ></path>
<path d="M -97 348 L -93 457 L 10 444 Z" stroke="#371b40" fill="#371b40" style="animation-play-state:paused" ></path>
<path d="M 1217 761 L 1347 670 L 1225 668 Z" stroke="#afa82e" fill="#afa82e" style="animation-play-state:paused" ></path>
<path d="M 1332 572 L 1404 546 L 1330 458 Z" stroke="#7b9a31" fill="#7b9a31" style="animation-play-state:paused" ></path>
<path d="M 1446 264 L 1432 171 L 1317 242 Z" stroke="#91cdd7" fill="#91cdd7" style="animation-play-state:paused" ></path>
<path d="M 1494 236 L 1446 264 L 1529 355 Z" stroke="#7cc6bd" fill="#7cc6bd" style="animation-play-state:paused" ></path>
<path d="M 1421 345 L 1446 264 L 1317 242 Z" stroke="#7ec7c2" fill="#7ec7c2" style="animation-play-state:paused" ></path>
<path d="M -82 642 L -80 572 L -195 568 Z" stroke="#343861" fill="#343861" style="animation-play-state:paused" ></path>
<path d="M -93 457 L -80 572 L 10 444 Z" stroke="#343761" fill="#343761" style="animation-play-state:paused" ></path>
<path d="M 120 -126 L 38 -138 L 107 -40 Z" stroke="#5a6e1e" fill="#5a6e1e" style="animation-play-state:paused" ></path>
<path d="M 25 -29 L -88 56 L 30 76 Z" stroke="#195879" fill="#195879" style="animation-play-state:paused" ></path>
<path d="M -73 756 L 40 765 L 22 662 Z" stroke="#2a7d8a" fill="#2a7d8a" style="animation-play-state:paused" ></path>
<path d="M 22 662 L 40 765 L 113 657 Z" stroke="#43928c" fill="#43928c" style="animation-play-state:paused" ></path>
<path d="M 117 772 L 40 765 L 231 770 Z" stroke="#60a79a" fill="#60a79a" style="animation-play-state:paused" ></path>
<path d="M 1437 675 L 1404 546 L 1332 572 Z" stroke="#a2a42b" fill="#a2a42b" style="animation-play-state:paused" ></path>
<path d="M 1404 546 L 1419 472 L 1330 458 Z" stroke="#75a145" fill="#75a145" style="animation-play-state:paused" ></path>
<path d="M -201 139 L -181 277 L -94 265 Z" stroke="#503753" fill="#503753" style="animation-play-state:paused" ></path>
<path d="M -94 265 L -181 277 L -97 348 Z" stroke="#462a49" fill="#462a49" style="animation-play-state:paused" ></path>
<path d="M -76 -42 L -88 56 L 25 -29 Z" stroke="#006d4f" fill="#006d4f" style="animation-play-state:paused" ></path>
<path d="M 1397 -50 L 1412 38 L 1494 -46 Z" stroke="#237087" fill="#237087" style="animation-play-state:paused" ></path>
<path d="M 1432 171 L 1412 38 L 1331 60 Z" stroke="#68aea7" fill="#68aea7" style="animation-play-state:paused" ></path>
<path d="M 1306 -39 L 1325 -142 L 1195 -146 Z" stroke="#37183c" fill="#37183c" style="animation-play-state:paused" ></path>
<path d="M 1397 -50 L 1325 -142 L 1306 -39 Z" stroke="#343760" fill="#343760" style="animation-play-state:paused" ></path>
<path d="M 922 772 L 1337 781 L 1128 765 Z" stroke="#969f29" fill="#969f29" style="animation-play-state:paused" ></path>
<path d="M 1217 761 L 1337 781 L 1347 670 Z" stroke="#c3af34" fill="#c3af34" style="animation-play-state:paused" ></path>
<path d="M 1347 670 L 1437 675 L 1332 572 Z" stroke="#b2aa2f" fill="#b2aa2f" style="animation-play-state:paused" ></path>
<path d="M 846 758 L 1337 781 L 922 772 Z" stroke="#7d982d" fill="#7d982d" style="animation-play-state:paused" ></path>
<path d="M 231 770 L 1337 781 L 846 758 Z" stroke="#6eb685" fill="#6eb685" style="animation-play-state:paused" ></path>
<path d="M -195 568 L -80 572 L -93 457 Z" stroke="#37274f" fill="#37274f" style="animation-play-state:paused" ></path>
<path d="M -80 572 L -82 642 L 22 662 Z" stroke="#255d7f" fill="#255d7f" style="animation-play-state:paused" ></path>
<path d="M 1518 79 L 1412 38 L 1432 171 Z" stroke="#6db2ae" fill="#6db2ae" style="animation-play-state:paused" ></path>
<path d="M 1412 38 L 1397 -50 L 1306 -39 Z" stroke="#236e86" fill="#236e86" style="animation-play-state:paused" ></path>
<path d="M -64 -137 L -76 -42 L 25 -29 Z" stroke="#8a6618" fill="#8a6618" style="animation-play-state:paused" ></path>
<path d="M -201 139 L -94 265 L -78 180 Z" stroke="#513854" fill="#513854" style="animation-play-state:paused" ></path>
<path d="M -201 139 L -78 180 L -88 56 Z" stroke="#454a6f" fill="#454a6f" style="animation-play-state:paused" ></path>
<path d="M -97 348 L -158 475 L -93 457 Z" stroke="#391b3e" fill="#391b3e" style="animation-play-state:paused" ></path>
<path d="M 1417 768 L 1437 675 L 1347 670 Z" stroke="#d5b53a" fill="#d5b53a" style="animation-play-state:paused" ></path>
<path d="M 1537 585 L 1497 448 L 1419 472 Z" stroke="#7d992e" fill="#7d992e" style="animation-play-state:paused" ></path>
<path d="M -181 277 L -183 372 L -97 348 Z" stroke="#452948" fill="#452948" style="animation-play-state:paused" ></path>
<path d="M 1529 355 L 1446 264 L 1421 345 Z" stroke="#77c2ae" fill="#77c2ae" style="animation-play-state:paused" ></path>
<path d="M 1446 264 L 1494 236 L 1432 171 Z" stroke="#8fcdd5" fill="#8fcdd5" style="animation-play-state:paused" ></path>
<path d="M 1497 448 L 1421 345 L 1419 472 Z" stroke="#6db071" fill="#6db071" style="animation-play-state:paused" ></path>
<path d="M -183 372 L -158 475 L -97 348 Z" stroke="#3e2142" fill="#3e2142" style="animation-play-state:paused" ></path>
<path d="M 38 -138 L -64 -137 L 25 -29 Z" stroke="#a65c2b" fill="#a65c2b" style="animation-play-state:paused" ></path>
<path d="M -184 47 L -201 139 L -88 56 Z" stroke="#00666b" fill="#00666b" style="animation-play-state:paused" ></path>
<path d="M 1537 585 L 1419 472 L 1404 546 Z" stroke="#899a27" fill="#899a27" style="animation-play-state:paused" ></path>
<path d="M 1497 448 L 1529 355 L 1421 345 Z" stroke="#6fb889" fill="#6fb889" style="animation-play-state:paused" ></path>
<path d="M 1494 236 L 1509 140 L 1432 171 Z" stroke="#96ccda" fill="#96ccda" style="animation-play-state:paused" ></path>
<path d="M 1610 251 L 1509 140 L 1494 236 Z" stroke="#92cdd8" fill="#92cdd8" style="animation-play-state:paused" ></path>
<path d="M -173 669 L -73 756 L -82 642 Z" stroke="#2d4c73" fill="#2d4c73" style="animation-play-state:paused" ></path>
<path d="M -82 642 L -73 756 L 22 662 Z" stroke="#236784" fill="#236784" style="animation-play-state:paused" ></path>
<path d="M -184 47 L -88 56 L -167 -18 Z" stroke="#326f36" fill="#326f36" style="animation-play-state:paused" ></path>
<path d="M -181 277 L -278 363 L -183 372 Z" stroke="#4a2f4d" fill="#4a2f4d" style="animation-play-state:paused" ></path>
<path d="M -280 560 L -195 568 L -158 475 Z" stroke="#3b1c3f" fill="#3b1c3f" style="animation-play-state:paused" ></path>
<path d="M -158 475 L -195 568 L -93 457 Z" stroke="#37183c" fill="#37183c" style="animation-play-state:paused" ></path>
<path d="M -278 363 L -158 475 L -183 372 Z" stroke="#432747" fill="#432747" style="animation-play-state:paused" ></path>
<path d="M 1437 675 L 1537 585 L 1404 546 Z" stroke="#afa82e" fill="#afa82e" style="animation-play-state:paused" ></path>
<path d="M 1337 781 L 1417 768 L 1347 670 Z" stroke="#d7b53a" fill="#d7b53a" style="animation-play-state:paused" ></path>
<path d="M 1494 -46 L 1408 -153 L 1397 -50 Z" stroke="#343861" fill="#343861" style="animation-play-state:paused" ></path>
<path d="M 1397 -50 L 1408 -153 L 1325 -142 Z" stroke="#36173b" fill="#36173b" style="animation-play-state:paused" ></path>
<path d="M 1325 -142 L 1408 -153 L 1195 -146 Z" stroke="#3e2042" fill="#3e2042" style="animation-play-state:paused" ></path>
<path d="M -167 -18 L -88 56 L -76 -42 Z" stroke="#486f28" fill="#486f28" style="animation-play-state:paused" ></path>
<path d="M 1619 171 L 1518 79 L 1509 140 Z" stroke="#7ebec3" fill="#7ebec3" style="animation-play-state:paused" ></path>
<path d="M 1509 140 L 1518 79 L 1432 171 Z" stroke="#7cbdc1" fill="#7cbdc1" style="animation-play-state:paused" ></path>
<path d="M -169 -123 L -167 -18 L -76 -42 Z" stroke="#c54c58" fill="#c54c58" style="animation-play-state:paused" ></path>
<path d="M -195 568 L -173 669 L -82 642 Z" stroke="#36315a" fill="#36315a" style="animation-play-state:paused" ></path>
<path d="M 1532 677 L 1537 585 L 1437 675 Z" stroke="#ceb337" fill="#ceb337" style="animation-play-state:paused" ></path>
<path d="M 1497 448 L 1618 457 L 1529 355 Z" stroke="#6ead69" fill="#6ead69" style="animation-play-state:paused" ></path>
<path d="M 1529 355 L 1610 251 L 1494 236 Z" stroke="#7cc6bd" fill="#7cc6bd" style="animation-play-state:paused" ></path>
<path d="M 1518 79 L 1494 -46 L 1412 38 Z" stroke="#4a968c" fill="#4a968c" style="animation-play-state:paused" ></path>
<path d="M -293 239 L -278 363 L -181 277 Z" stroke="#513854" fill="#513854" style="animation-play-state:paused" ></path>
<path d="M -285 636 L -200 750 L -173 669 Z" stroke="#371c41" fill="#371c41" style="animation-play-state:paused" ></path>
<path d="M -266 168 L -181 277 L -201 139 Z" stroke="#4b476a" fill="#4b476a" style="animation-play-state:paused" ></path>
<path d="M -266 168 L -201 139 L -277 63 Z" stroke="#006a5e" fill="#006a5e" style="animation-play-state:paused" ></path>
<path d="M -277 63 L -201 139 L -184 47 Z" stroke="#146e44" fill="#146e44" style="animation-play-state:paused" ></path>
<path d="M 1417 768 L 1532 677 L 1437 675 Z" stroke="#dfb23b" fill="#dfb23b" style="animation-play-state:paused" ></path>
<path d="M -64 -137 L -169 -123 L -76 -42 Z" stroke="#d05275" fill="#d05275" style="animation-play-state:paused" ></path>
<path d="M -167 -18 L -277 63 L -184 47 Z" stroke="#726b16" fill="#726b16" style="animation-play-state:paused" ></path>
<path d="M 38 -138 L -169 -123 L -64 -137 Z" stroke="#d46176" fill="#d46176" style="animation-play-state:paused" ></path>
<path d="M 120 -126 L -169 -123 L 38 -138 Z" stroke="#ca496a" fill="#ca496a" style="animation-play-state:paused" ></path>
<path d="M 294 -147 L -169 -123 L 120 -126 Z" stroke="#a05f26" fill="#a05f26" style="animation-play-state:paused" ></path>
<path d="M 1618 457 L 1497 448 L 1537 585 Z" stroke="#7e982a" fill="#7e982a" style="animation-play-state:paused" ></path>
<path d="M 1623 387 L 1610 251 L 1529 355 Z" stroke="#76bfa4" fill="#76bfa4" style="animation-play-state:paused" ></path>
<path d="M 1613 -142 L 1506 -140 L 1494 -46 Z" stroke="#37254c" fill="#37254c" style="animation-play-state:paused" ></path>
<path d="M -280 560 L -173 669 L -195 568 Z" stroke="#38193c" fill="#38193c" style="animation-play-state:paused" ></path>
<path d="M -173 669 L -200 750 L -73 756 Z" stroke="#323e68" fill="#323e68" style="animation-play-state:paused" ></path>
<path d="M -73 756 L -200 750 L 40 765 Z" stroke="#245f80" fill="#245f80" style="animation-play-state:paused" ></path>
<path d="M -277 63 L -293 239 L -266 168 Z" stroke="#006769" fill="#006769" style="animation-play-state:paused" ></path>
<path d="M -266 168 L -293 239 L -181 277 Z" stroke="#514363" fill="#514363" style="animation-play-state:paused" ></path>
<path d="M -293 239 L -288 456 L -278 363 Z" stroke="#4f3551" fill="#4f3551" style="animation-play-state:paused" ></path>
<path d="M -278 363 L -288 456 L -158 475 Z" stroke="#442848" fill="#442848" style="animation-play-state:paused" ></path>
<path d="M -289 -42 L -277 63 L -167 -18 Z" stroke="#bf4f4b" fill="#bf4f4b" style="animation-play-state:paused" ></path>
<path d="M 1611 554 L 1618 457 L 1537 585 Z" stroke="#939e28" fill="#939e28" style="animation-play-state:paused" ></path>
<path d="M 1601 -45 L 1494 -46 L 1518 79 Z" stroke="#30838b" fill="#30838b" style="animation-play-state:paused" ></path>
<path d="M 1494 -46 L 1506 -140 L 1408 -153 Z" stroke="#371f45" fill="#371f45" style="animation-play-state:paused" ></path>
<path d="M 1408 -153 L 1506 -140 L 1195 -146 Z" stroke="#3c1f41" fill="#3c1f41" style="animation-play-state:paused" ></path>
<path d="M -288 456 L -280 560 L -158 475 Z" stroke="#402344" fill="#402344" style="animation-play-state:paused" ></path>
<path d="M 1618 457 L 1623 387 L 1529 355 Z" stroke="#6db276" fill="#6db276" style="animation-play-state:paused" ></path>
<path d="M 1417 768 L 1536 767 L 1532 677 Z" stroke="#dc9a32" fill="#dc9a32" style="animation-play-state:paused" ></path>
<path d="M 1635 681 L 1611 554 L 1537 585 Z" stroke="#c1ae33" fill="#c1ae33" style="animation-play-state:paused" ></path>
<path d="M 1337 781 L 1536 767 L 1417 768 Z" stroke="#dea535" fill="#dea535" style="animation-play-state:paused" ></path>
<path d="M 1623 387 L 1619 171 L 1610 251 Z" stroke="#7dc7c1" fill="#7dc7c1" style="animation-play-state:paused" ></path>
<path d="M 1610 251 L 1619 171 L 1509 140 Z" stroke="#9acfde" fill="#9acfde" style="animation-play-state:paused" ></path>
<path d="M 1619 171 L 1618 60 L 1518 79 Z" stroke="#73b6b6" fill="#73b6b6" style="animation-play-state:paused" ></path>
<path d="M 1635 681 L 1537 585 L 1532 677 Z" stroke="#d8b63b" fill="#d8b63b" style="animation-play-state:paused" ></path>
<path d="M 1618 457 L 1611 554 L 1623 387 Z" stroke="#77a041" fill="#77a041" style="animation-play-state:paused" ></path>
<path d="M -293 239 L -285 636 L -288 456 Z" stroke="#482c4b" fill="#482c4b" style="animation-play-state:paused" ></path>
<path d="M -288 456 L -285 636 L -280 560 Z" stroke="#412444" fill="#412444" style="animation-play-state:paused" ></path>
<path d="M -280 560 L -285 636 L -173 669 Z" stroke="#3a1b3e" fill="#3a1b3e" style="animation-play-state:paused" ></path>
<path d="M 1613 -142 L 1601 -45 L 1618 60 Z" stroke="#236482" fill="#236482" style="animation-play-state:paused" ></path>
<path d="M 1618 60 L 1601 -45 L 1518 79 Z" stroke="#59a08d" fill="#59a08d" style="animation-play-state:paused" ></path>
<path d="M -256 -141 L -289 -42 L -167 -18 Z" stroke="#d86f78" fill="#d86f78" style="animation-play-state:paused" ></path>
<path d="M -277 63 L -289 -42 L -293 239 Z" stroke="#616e1b" fill="#616e1b" style="animation-play-state:paused" ></path>
<path d="M 1603 737 L 1635 681 L 1532 677 Z" stroke="#dc9b32" fill="#dc9b32" style="animation-play-state:paused" ></path>
<path d="M 1611 554 L 1635 681 L 1623 387 Z" stroke="#9aa129" fill="#9aa129" style="animation-play-state:paused" ></path>
<path d="M -169 -123 L -256 -141 L -167 -18 Z" stroke="#d97579" fill="#d97579" style="animation-play-state:paused" ></path>
<path d="M 1536 767 L 1603 737 L 1532 677 Z" stroke="#da8f30" fill="#da8f30" style="animation-play-state:paused" ></path>
<path d="M -285 636 L -309 760 L -200 750 Z" stroke="#391a3d" fill="#391a3d" style="animation-play-state:paused" ></path>
<path d="M -200 750 L -309 760 L 40 765 Z" stroke="#323d67" fill="#323d67" style="animation-play-state:paused" ></path>
<path d="M -293 239 L -309 760 L -285 636 Z" stroke="#422546" fill="#422546" style="animation-play-state:paused" ></path>
<path d="M 1619 171 L 1613 -142 L 1618 60 Z" stroke="#599f8d" fill="#599f8d" style="animation-play-state:paused" ></path>
<path d="M 1601 -45 L 1613 -142 L 1494 -46 Z" stroke="#30436c" fill="#30436c" style="animation-play-state:paused" ></path></g>
<style type="text/css" style="animation-play-state:paused" >#bk-0.34584442825780903 path { stroke-width: 1 }</style></g></svg>